<svg width="21" height="19" viewBox="0 0 21 19" fill="none" xmlns="http://www.w3.org/2000/svg">
<g clip-path="url(#clip0_48_193)">
<path d="M14.875 4.45312C14.875 6.4793 12.2099 10.09 11.0396 11.5781C10.7589 11.9344 10.2375 11.9344 9.96042 11.5781C8.7901 10.09 6.125 6.4793 6.125 4.45312C6.125 1.99277 8.08281 0 10.5 0C12.9172 0 14.875 1.99277 14.875 4.45312ZM15.1667 7.43672C15.2943 7.18066 15.4109 6.92461 15.5167 6.67227C15.5349 6.62773 15.5531 6.57949 15.5714 6.53496L19.8005 4.81309C20.3766 4.5793 21 5.00977 21 5.64062V15.6898C21 16.0535 20.7812 16.3801 20.4495 16.5174L15.1667 18.666V7.43672ZM5.01667 5.13223C5.10417 5.65547 5.27917 6.18242 5.48333 6.67227C5.58906 6.92461 5.70573 7.18066 5.83333 7.43672V16.766L1.19948 18.6549C0.623438 18.8887 0 18.4582 0 17.8273V7.77813C0 7.41445 0.21875 7.08789 0.550521 6.95059L5.02031 5.13223H5.01667ZM11.951 12.3203C12.4578 11.6746 13.2526 10.6244 14 9.46289V18.7143L7 16.677V9.46289C7.7474 10.6244 8.54219 11.6746 9.04896 12.3203C9.79635 13.2703 11.2036 13.2703 11.951 12.3203ZM10.5 5.64062C10.8868 5.64062 11.2577 5.48424 11.5312 5.20586C11.8047 4.92749 11.9583 4.54993 11.9583 4.15625C11.9583 3.76257 11.8047 3.38501 11.5312 3.10664C11.2577 2.82826 10.8868 2.67188 10.5 2.67188C10.1132 2.67188 9.74229 2.82826 9.4688 3.10664C9.19531 3.38501 9.04167 3.76257 9.04167 4.15625C9.04167 4.54993 9.19531 4.92749 9.4688 5.20586C9.74229 5.48424 10.1132 5.64062 10.5 5.64062Z" fill="black" fill-opacity="0.5"/>
</g>
<defs>
<clipPath id="clip0_48_193">
<rect width="21" height="19" fill="white"/>
</clipPath>
</defs>
</svg>
