<svg width="21" height="24" viewBox="0 0 21 24" fill="none" xmlns="http://www.w3.org/2000/svg">
<g clip-path="url(#clip0_48_103)">
<path d="M14.25 6.75V9H6.75V6.75C6.75 4.67812 8.42813 3 10.5 3C12.5719 3 14.25 4.67812 14.25 6.75ZM17.25 9V6.75C17.25 3.02344 14.2266 0 10.5 0C6.77344 0 3.75 3.02344 3.75 6.75V9H3C1.34531 9 0 10.3453 0 12V21C0 22.6547 1.34531 24 3 24H18C19.6547 24 21 22.6547 21 21V12C21 10.3453 19.6547 9 18 9H17.25Z" fill="#0A0A0A" fill-opacity="0.5"/>
</g>
<defs>
<clipPath id="clip0_48_103">
<rect width="21" height="24" fill="white" transform="matrix(-1 0 0 1 21 0)"/>
</clipPath>
</defs>
</svg>
