<svg width="23" height="21" viewBox="0 0 23 21" fill="none" xmlns="http://www.w3.org/2000/svg">
<path d="M10.2222 1.3125H7.23542C6.1533 1.3125 5.18698 2.01387 4.8276 3.05977L0.123785 16.7016C0.0439236 16.9395 0 17.1937 0 17.448C0 18.6826 0.978299 19.6875 2.18021 19.6875H10.2222V17.0625C10.2222 16.3365 10.7932 15.75 11.5 15.75C12.2068 15.75 12.7778 16.3365 12.7778 17.0625V19.6875H20.8198C22.0257 19.6875 23 18.6826 23 17.448C23 17.1937 22.9561 16.9395 22.8762 16.7016L18.1724 3.05977C17.809 2.01387 16.8467 1.3125 15.7646 1.3125H12.7778V3.9375C12.7778 4.66348 12.2068 5.25 11.5 5.25C10.7932 5.25 10.2222 4.66348 10.2222 3.9375V1.3125ZM12.7778 9.1875V11.8125C12.7778 12.5385 12.2068 13.125 11.5 13.125C10.7932 13.125 10.2222 12.5385 10.2222 11.8125V9.1875C10.2222 8.46152 10.7932 7.875 11.5 7.875C12.2068 7.875 12.7778 8.46152 12.7778 9.1875Z" fill="black" fill-opacity="0.5"/>
</svg>
