<svg width="19" height="22" viewBox="0 0 19 22" fill="none" xmlns="http://www.w3.org/2000/svg">
<g clip-path="url(#clip0_48_105)">
<path d="M9.5 11C10.9397 11 12.3205 10.4205 13.3386 9.38909C14.3566 8.35764 14.9286 6.95869 14.9286 5.5C14.9286 4.04131 14.3566 2.64236 13.3386 1.61091C12.3205 0.579463 10.9397 0 9.5 0C8.06025 0 6.67947 0.579463 5.66142 1.61091C4.64337 2.64236 4.07143 4.04131 4.07143 5.5C4.07143 6.95869 4.64337 8.35764 5.66142 9.38909C6.67947 10.4205 8.06025 11 9.5 11ZM7.56183 13.0625C3.38438 13.0625 0 16.4914 0 20.7238C0 21.4285 0.564063 22 1.2596 22H17.7404C18.4359 22 19 21.4285 19 20.7238C19 16.4914 15.6156 13.0625 11.4382 13.0625H7.56183Z" fill="black" fill-opacity="0.5"/>
</g>
<defs>
<clipPath id="clip0_48_105">
<rect width="19" height="22" fill="white"/>
</clipPath>
</defs>
</svg>
