<svg width="21" height="17" viewBox="0 0 21 17" fill="none" xmlns="http://www.w3.org/2000/svg">
<g clip-path="url(#clip0_48_189)">
<path d="M0 16.2032V5.68779C0 4.81787 0.521719 4.0376 1.31906 3.71553L10.1095 0.159473C10.3589 0.056543 10.6378 0.056543 10.8905 0.159473L19.6809 3.71553C20.4783 4.0376 21 4.82119 21 5.68779V16.2032C21 16.6448 20.6489 17.0001 20.2125 17.0001H18.6375C18.2011 17.0001 17.85 16.6448 17.85 16.2032V7.4376C17.85 6.8499 17.3808 6.3751 16.8 6.3751H4.2C3.61922 6.3751 3.15 6.8499 3.15 7.4376V16.2032C3.15 16.6448 2.79891 17.0001 2.3625 17.0001H0.7875C0.351094 17.0001 0 16.6448 0 16.2032ZM16.0125 17.0001H4.9875C4.55109 17.0001 4.2 16.6448 4.2 16.2032V14.3438H16.8V16.2032C16.8 16.6448 16.4489 17.0001 16.0125 17.0001ZM4.2 13.2813V11.1563H16.8V13.2813H4.2ZM4.2 10.0938V7.4376H16.8V10.0938H4.2Z" fill="black" fill-opacity="0.5"/>
</g>
<defs>
<clipPath id="clip0_48_189">
<rect width="21" height="17" fill="white"/>
</clipPath>
</defs>
</svg>
