<svg width="75" height="60" viewBox="0 0 75 60" fill="none" xmlns="http://www.w3.org/2000/svg">
<g clip-path="url(#clip0_48_64)">
<path d="M5.625 5.625H15.9375C17.4961 5.625 18.75 4.37109 18.75 2.8125C18.75 1.25391 17.4961 0 15.9375 0H3.75C1.67578 0 0 1.67578 0 3.75V15.9375C0 17.4961 1.25391 18.75 2.8125 18.75C4.37109 18.75 5.625 17.4961 5.625 15.9375V5.625ZM20.6016 26.25C21.3402 26.25 22.0717 26.1045 22.7542 25.8218C23.4366 25.5391 24.0567 25.1248 24.579 24.6025C25.1014 24.0801 25.5157 23.4601 25.7984 22.7776C26.0811 22.0951 26.2266 21.3637 26.2266 20.625C26.2266 19.8863 26.0811 19.1549 25.7984 18.4724C25.5157 17.7899 25.1014 17.1699 24.579 16.6475C24.0567 16.1252 23.4366 15.7109 22.7542 15.4282C22.0717 15.1455 21.3402 15 20.6016 15C19.8629 15 19.1314 15.1455 18.449 15.4282C17.7665 15.7109 17.1464 16.1252 16.6241 16.6475C16.1018 17.1699 15.6874 17.7899 15.4047 18.4724C15.1221 19.1549 14.9766 19.8863 14.9766 20.625C14.9766 21.3637 15.1221 22.0951 15.4047 22.7776C15.6874 23.4601 16.1018 24.0801 16.6241 24.6025C17.1464 25.1248 17.7665 25.5391 18.449 25.8218C19.1314 26.1045 19.8629 26.25 20.6016 26.25ZM17.4961 30C14.0508 30 11.25 32.8008 11.25 36.2461C11.25 37.9688 12.6445 39.375 14.3789 39.375H20.9531C21.8906 35.3789 24.7969 32.1445 28.5938 30.75C27.7148 30.2695 26.6953 30 25.6289 30H17.4961ZM60.6211 39.375C62.3438 39.375 63.75 37.9805 63.75 36.2461C63.75 32.7891 60.9492 30 57.5039 30H49.3711C48.293 30 47.2852 30.2695 46.4062 30.75C50.2031 32.1445 53.1094 35.3789 54.0469 39.375H60.6211ZM50.1445 39.375C49.1367 36.5273 46.6406 34.3828 43.5938 33.8672C43.1367 33.7852 42.668 33.75 42.1875 33.75H32.8125C32.332 33.75 31.8633 33.7852 31.4062 33.8672C28.3594 34.3828 25.8633 36.5273 24.8555 39.375C24.5391 40.2539 24.375 41.2031 24.375 42.1875C24.375 43.7461 25.6289 45 27.1875 45H47.8125C49.3711 45 50.625 43.7461 50.625 42.1875C50.625 41.2031 50.4609 40.2539 50.1445 39.375ZM54.375 26.25C55.1137 26.25 55.8451 26.1045 56.5276 25.8218C57.2101 25.5391 57.8301 25.1248 58.3525 24.6025C58.8748 24.0801 59.2891 23.4601 59.5718 22.7776C59.8545 22.0951 60 21.3637 60 20.625C60 19.8863 59.8545 19.1549 59.5718 18.4724C59.2891 17.7899 58.8748 17.1699 58.3525 16.6475C57.8301 16.1252 57.2101 15.7109 56.5276 15.4282C55.8451 15.1455 55.1137 15 54.375 15C53.6363 15 52.9049 15.1455 52.2224 15.4282C51.5399 15.7109 50.9199 16.1252 50.3975 16.6475C49.8752 17.1699 49.4609 17.7899 49.1782 18.4724C48.8955 19.1549 48.75 19.8863 48.75 20.625C48.75 21.3637 48.8955 22.0951 49.1782 22.7776C49.4609 23.4601 49.8752 24.0801 50.3975 24.6025C50.9199 25.1248 51.5399 25.5391 52.2224 25.8218C52.9049 26.1045 53.6363 26.25 54.375 26.25ZM45 22.5C45 20.5109 44.2098 18.6032 42.8033 17.1967C41.3968 15.7902 39.4891 15 37.5 15C35.5109 15 33.6032 15.7902 32.1967 17.1967C30.7902 18.6032 30 20.5109 30 22.5C30 24.4891 30.7902 26.3968 32.1967 27.8033C33.6032 29.2098 35.5109 30 37.5 30C39.4891 30 41.3968 29.2098 42.8033 27.8033C44.2098 26.3968 45 24.4891 45 22.5ZM59.0625 5.625H69.375V15.9375C69.375 17.4961 70.6289 18.75 72.1875 18.75C73.7461 18.75 75 17.4961 75 15.9375V3.75C75 1.67578 73.3242 0 71.25 0H59.0625C57.5039 0 56.25 1.25391 56.25 2.8125C56.25 4.37109 57.5039 5.625 59.0625 5.625ZM5.625 54.375V44.0625C5.625 42.5039 4.37109 41.25 2.8125 41.25C1.25391 41.25 0 42.5039 0 44.0625V56.25C0 58.3242 1.67578 60 3.75 60H15.9375C17.4961 60 18.75 58.7461 18.75 57.1875C18.75 55.6289 17.4961 54.375 15.9375 54.375H5.625ZM59.0625 54.375C57.5039 54.375 56.25 55.6289 56.25 57.1875C56.25 58.7461 57.5039 60 59.0625 60H71.25C73.3242 60 75 58.3242 75 56.25V44.0625C75 42.5039 73.7461 41.25 72.1875 41.25C70.6289 41.25 69.375 42.5039 69.375 44.0625V54.375H59.0625Z" fill="black"/>
</g>
<defs>
<clipPath id="clip0_48_64">
<rect width="75" height="60" fill="white"/>
</clipPath>
</defs>
</svg>
