<svg width="23" height="23" viewBox="0 0 23 23" fill="none" xmlns="http://www.w3.org/2000/svg">
<g clip-path="url(#clip0_48_110)">
<path d="M7.40762 1.10487C7.06172 0.269323 6.1498 -0.175403 5.27832 0.0626828L1.3252 1.14081C0.543555 1.35643 0 2.0662 0 2.87479C0 13.9885 9.01133 22.9998 20.125 22.9998C20.9336 22.9998 21.6434 22.4562 21.859 21.6746L22.9371 17.7215C23.1752 16.85 22.7305 15.9381 21.8949 15.5922L17.5824 13.7953C16.8502 13.4898 16.0012 13.701 15.5025 14.3164L13.6877 16.531C10.5252 15.0351 7.96465 12.4746 6.46875 9.3121L8.6834 7.50175C9.29883 6.99862 9.50996 6.15409 9.20449 5.42186L7.40762 1.10936V1.10487Z" fill="black" fill-opacity="0.5"/>
</g>
<defs>
<clipPath id="clip0_48_110">
<rect width="23" height="23" fill="white"/>
</clipPath>
</defs>
</svg>
