<svg width="22" height="22" viewBox="0 0 22 22" fill="none" xmlns="http://www.w3.org/2000/svg">
<g clip-path="url(#clip0_48_101)">
<path d="M11 2.75C6.44531 2.75 2.75 6.44531 2.75 11C2.75 15.5547 6.44531 19.25 11 19.25C11.7605 19.25 12.375 19.8645 12.375 20.625C12.375 21.3855 11.7605 22 11 22C4.92422 22 0 17.0758 0 11C0 4.92422 4.92422 0 11 0C17.0758 0 22 4.92422 22 11V12.375C22 14.6523 20.1523 16.5 17.875 16.5C16.616 16.5 15.4859 15.9328 14.7297 15.0434C13.75 15.9457 12.4395 16.5 11 16.5C7.96211 16.5 5.5 14.0379 5.5 11C5.5 7.96211 7.96211 5.5 11 5.5C12.1988 5.5 13.3074 5.88242 14.2098 6.53555C14.4547 6.3207 14.7727 6.1875 15.125 6.1875C15.8855 6.1875 16.5 6.80195 16.5 7.5625V11V12.375C16.5 13.1355 17.1145 13.75 17.875 13.75C18.6355 13.75 19.25 13.1355 19.25 12.375V11C19.25 6.44531 15.5547 2.75 11 2.75ZM13.75 11C13.75 10.2707 13.4603 9.57118 12.9445 9.05546C12.4288 8.53973 11.7293 8.25 11 8.25C10.2707 8.25 9.57118 8.53973 9.05546 9.05546C8.53973 9.57118 8.25 10.2707 8.25 11C8.25 11.7293 8.53973 12.4288 9.05546 12.9445C9.57118 13.4603 10.2707 13.75 11 13.75C11.7293 13.75 12.4288 13.4603 12.9445 12.9445C13.4603 12.4288 13.75 11.7293 13.75 11Z" fill="black" fill-opacity="0.5"/>
</g>
<defs>
<clipPath id="clip0_48_101">
<rect width="22" height="22" fill="white"/>
</clipPath>
</defs>
</svg>
