<svg width="20" height="20" viewBox="0 0 20 20" fill="none" xmlns="http://www.w3.org/2000/svg">
<g clip-path="url(#clip0_48_195)">
<path d="M0.628888 10.164C-0.253925 10.6679 -0.171894 12.0116 0.769513 12.4022L6.24998 14.6874V18.7226C6.24998 19.4296 6.82029 19.9999 7.52732 19.9999C7.90623 19.9999 8.26561 19.8319 8.50779 19.539L10.9297 16.6366L15.7695 18.6522C16.5078 18.9608 17.3633 18.4765 17.4844 17.6874L19.9844 1.43741C20.0586 0.964749 19.8515 0.488186 19.457 0.218655C19.0625 -0.050876 18.5469 -0.0743135 18.1289 0.163968L0.628888 10.164ZM2.66404 11.1601L16.0039 3.53897L7.42576 13.1249L7.47264 13.164L2.66404 11.1601ZM15.7539 16.6171L9.24607 13.9022L17.6094 4.55459L15.7539 16.6171Z" fill="black" fill-opacity="0.5"/>
</g>
<defs>
<clipPath id="clip0_48_195">
<rect width="20" height="20" fill="white"/>
</clipPath>
</defs>
</svg>
