<svg width="52" height="63" viewBox="0 0 52 63" fill="none" xmlns="http://www.w3.org/2000/svg">
<g clip-path="url(#clip0_48_27)">
<path d="M26 31.5C29.9404 31.5 33.7193 29.8406 36.5056 26.8869C39.2918 23.9332 40.8571 19.9272 40.8571 15.75C40.8571 11.5728 39.2918 7.56677 36.5056 4.61307C33.7193 1.65937 29.9404 0 26 0C22.0596 0 18.2807 1.65937 15.4944 4.61307C12.7082 7.56677 11.1429 11.5728 11.1429 15.75C11.1429 19.9272 12.7082 23.9332 15.4944 26.8869C18.2807 29.8406 22.0596 31.5 26 31.5ZM20.6955 37.4062C9.2625 37.4062 0 47.2254 0 59.3455C0 61.3635 1.54375 63 3.44732 63H48.5527C50.4562 63 52 61.3635 52 59.3455C52 47.2254 42.7375 37.4062 31.3045 37.4062H20.6955Z" fill="#040404"/>
</g>
<defs>
<clipPath id="clip0_48_27">
<rect width="52" height="63" fill="white"/>
</clipPath>
</defs>
</svg>
